HIERARCHY
ROOT hip
{
	OFFSET 0.000000 0.000000 0.000000 
	CHANNELS 6 Xposition Yposition Zposition Xrotation Zrotation Yrotation
	JOINT abdomen
	{
		OFFSET 0.000000 3.402643 0.000000 
		CHANNELS 3 Xrotation Zrotation Yrotation
		JOINT chest
		{
			OFFSET 0.000000 8.438565 -0.680529 
			CHANNELS 3 Xrotation Zrotation Yrotation
			JOINT neck
			{
				OFFSET 0.000000 10.207942 -0.272212 
				CHANNELS 3 Xrotation Zrotation Yrotation
				JOINT head
				{
					OFFSET 0.000000 3.130431 0.000000 
					CHANNELS 3 Xrotation Zrotation Yrotation
					End Site
					{
						OFFSET 0.000000 3.130435 0.000000 
					}
				}
			}
			JOINT lCollar
			{
				OFFSET 3.470700 6.669187 -0.816635 
				CHANNELS 3 Yrotation Zrotation Xrotation
				JOINT lShldr
				{
					OFFSET 3.198488 0.000000 0.000000 
					CHANNELS 3 Zrotation Yrotation Xrotation
					JOINT lForeArm
					{
						OFFSET 10.139888 0.000000 0.000000 
						CHANNELS 3 Yrotation Zrotation Xrotation
						JOINT lHand
						{
							OFFSET 8.370511 0.000000 0.000000 
							CHANNELS 3 Zrotation Yrotation Xrotation
							End Site
							{
								OFFSET 4.083176 0.000000 0.000000 
							}
						}
					}
				}
			}
			JOINT rCollar
			{
				OFFSET -3.470700 6.669187 -0.816635 
				CHANNELS 3 Yrotation Zrotation Xrotation
				JOINT rShldr
				{
					OFFSET -3.198488 0.000000 0.000000 
					CHANNELS 3 Zrotation Yrotation Xrotation
					JOINT rForeArm
					{
						OFFSET -10.139888 0.000000 0.000000 
						CHANNELS 3 Yrotation Zrotation Xrotation
						JOINT rHand
						{
							OFFSET -8.370511 0.000000 0.000000 
							CHANNELS 3 Zrotation Yrotation Xrotation
							End Site
							{
								OFFSET -4.083176 0.000000 0.000000 
							}
						}
					}
				}
			}
		}
	}
	JOINT lThigh
	{
		OFFSET 5.308129 -1.633274 1.361059 
		CHANNELS 3 Xrotation Zrotation Yrotation
		JOINT lShin
		{
			OFFSET -2.041588 -20.007561 0.000000 
			CHANNELS 3 Xrotation Zrotation Yrotation
			JOINT lFoot
			{
				OFFSET 0.000000 -19.190928 -1.224953 
				CHANNELS 3 Xrotation Yrotation Zrotation
				End Site
				{
					OFFSET 0.000000 -2.449906 4.627600 
				}
			}
		}
	}
	JOINT rThigh
	{
		OFFSET -5.308129 -1.633274 1.361059 
		CHANNELS 3 Xrotation Zrotation Yrotation
		JOINT rShin
		{
			OFFSET 2.041588 -20.007561 0.000000 
			CHANNELS 3 Xrotation Zrotation Yrotation
			JOINT rFoot
			{
				OFFSET 0.000000 -19.190928 -1.224953 
				CHANNELS 3 Xrotation Yrotation Zrotation
				End Site
				{
					OFFSET 0.000000 -2.449906 4.627600 
				}
			}
		}
	}
}
MOTION
Frames: 16
Frame Time: 0.033333
243.906235 7.908828 2.693105 2.587891 11.367187 91.113281 21.677471 -14.030128 -1.297306 -0.849610 18.359373 7.099609 -8.407332 -15.151496 -12.071847 11.123048 -3.271484 -0.967354 2.000000 -2.000000 0.000000 -80.390625 -9.306641 18.875374 -3.101477 -10.107018 7.669271 -6.104548 -5.533863 -0.648910 -2.000000 2.000000 0.000000 41.689453 74.882813 -8.144533 -0.746067 -5.953236 17.162117 -9.417137 1.186271 -1.672148 -58.636158 3.837331 -2.303941 20.939631 -2.682749 -8.379539 6.290357 0.042724 -5.582583 8.067818 -1.834736 -12.608399 7.220396 2.446917 10.928331 -2.539856 5.984214 -10.166987 
244.630234 7.992280 2.691979 3.476562 12.080077 90.771484 21.677471 -14.030128 -1.297306 0.996093 17.548828 9.003906 -8.922744 -16.109707 -13.016837 11.552734 -2.861328 -0.859375 2.000000 -2.000000 0.000000 -79.990234 -5.175781 15.712892 -2.185033 -9.680850 8.387988 -5.711643 -5.429196 -0.702033 -2.000000 2.000000 0.000000 -8.505859 81.386719 -56.494247 -0.768001 -6.014061 17.500713 -15.123376 -0.452522 -1.701798 -64.750015 4.735569 5.302037 20.855478 -3.412498 -12.653361 2.480371 0.054061 -4.321231 9.454031 -2.771757 -11.162369 8.593861 2.418247 9.875136 -4.361391 5.962236 -10.439256 
245.639130 8.031285 2.719692 4.316406 12.695313 91.164253 21.677471 -14.030128 -1.297306 2.353516 16.230471 10.100386 -9.308646 -16.418621 -14.324124 11.865234 -2.519531 -0.752382 2.000000 -2.000000 0.000000 -78.925781 -0.947266 8.124841 -0.592656 -9.660826 9.024295 -1.904844 -4.393048 -1.013772 -2.000000 2.000000 0.000000 -61.826168 77.041016 -107.090096 -1.024691 -6.170480 17.803841 -17.993807 -1.289487 -1.661671 -71.400345 5.272286 10.874271 22.844738 -4.126205 -16.828762 -0.032821 0.136180 -3.907080 11.426647 -3.416474 -10.467463 9.003173 2.341686 8.870290 -6.112306 5.902207 -10.412591 
246.916473 8.052773 2.760187 5.009766 13.193360 92.043243 21.677471 -14.030128 -1.297306 3.408205 15.058595 10.539647 -9.730531 -16.665476 -15.554548 12.236328 -2.119140 -0.635127 2.000000 -2.000000 0.000000 -77.695313 3.203125 5.947266 -0.062598 -9.619407 9.217377 -0.778109 -4.083187 -1.100350 -2.000000 2.000000 0.000000 101.044914 110.859375 57.958984 -0.911701 -6.371767 18.347660 -20.211851 -1.916572 -1.612033 -77.613083 5.106587 13.627619 25.310272 -4.664887 -19.289700 -2.793235 0.087854 -2.631282 13.901325 -3.681233 -10.358346 8.404140 2.273048 7.916012 -7.559676 5.828898 -10.322679 
247.984512 8.092808 2.789841 5.498047 13.457031 93.097977 21.677471 -14.030128 -1.297306 4.335939 14.365235 10.686017 -10.334322 -17.133411 -16.750635 12.753906 -1.552734 -0.469015 2.000000 -2.000000 0.000000 -76.640625 7.207031 -0.496822 1.222527 -9.585271 9.608213 -11.820594 -7.019093 -0.031861 -2.000000 2.000000 0.000000 92.724625 119.804688 51.971367 -0.594481 -6.659175 19.014233 -22.001499 -2.441603 -1.537189 -83.362350 4.451034 14.689649 28.095291 -5.012659 -20.584349 -5.266911 0.009515 -1.069500 16.910126 -3.515505 -10.506095 6.118577 2.223665 6.965508 -7.903050 5.810697 -10.196175 
249.290451 8.174694 2.812269 6.074219 13.740235 93.955078 21.677471 -14.030128 -1.297306 5.449219 13.349609 10.988585 -11.263655 -17.300602 -17.785854 13.154297 -0.986328 -0.312668 2.000000 -2.000000 0.000000 -75.380859 10.849610 -1.882926 1.623815 -9.612066 9.649024 -9.427921 -6.412498 -0.307886 -2.000000 2.000000 0.000000 87.988297 128.945313 51.794704 -1.310158 -6.985148 19.060661 -23.770662 -2.939994 -1.459707 -88.362030 4.138494 14.836274 31.420506 -5.480579 -22.342974 -6.890658 0.050238 -0.661478 19.517467 -3.427809 -10.818223 4.369670 2.202338 6.076203 -7.813281 5.805949 -10.124613 
249.734604 8.196932 2.832253 5.791016 13.388672 94.501953 21.677471 -14.030128 -1.297306 5.292970 13.515625 11.056969 -11.652950 -17.559195 -18.356073 13.203125 -0.546875 -0.175875 2.000000 -2.000000 0.000000 -74.541016 15.048828 -1.943360 1.819026 -9.673595 9.603959 -9.929664 -6.524252 -0.259495 -2.000000 2.000000 0.000000 -94.404297 44.697266 -126.474609 -1.849813 -7.254527 19.141228 -24.707983 -3.196472 -1.404113 -92.699516 4.129090 15.354767 34.208897 -5.989880 -24.149776 -8.075889 0.064490 -0.259959 20.473410 -2.754298 -11.080525 4.329034 2.152763 5.614388 -7.941341 5.877019 -10.627189 
250.962006 8.264420 2.868190 5.703125 12.753907 95.529495 21.677471 -14.030128 -1.297306 5.224610 13.115235 10.685809 -12.452428 -17.334475 -18.931475 12.988282 -0.361328 -0.117249 2.000000 -2.000000 0.000000 -73.613281 18.203125 -1.823119 2.220640 -9.617539 9.717854 -10.953841 -6.805350 -0.131329 -2.000000 2.000000 0.000000 -95.166016 39.423828 -126.474609 -1.511360 -7.468475 19.577641 -24.997658 -3.281601 -1.391163 -94.400520 3.895526 18.666920 35.177944 -6.561393 -26.753695 -9.359561 -0.002429 0.774941 22.945200 -1.719638 -11.555502 0.477105 2.098554 4.725875 -6.338828 5.948473 -10.622577 
252.114685 8.351242 2.893193 5.556641 11.806453 96.701096 21.677471 -14.030128 -1.297306 5.019532 12.568359 10.519703 -13.410283 -16.808535 -19.613621 13.037110 -0.566406 -0.185643 2.000000 -2.000000 0.000000 -72.626953 20.332031 -1.939965 2.679101 -9.864262 9.527835 -13.289151 -7.389603 0.150340 -2.000000 2.000000 0.000000 -94.531250 35.175781 -127.861336 -0.139862 -7.764642 20.682695 -25.238935 -3.355857 -1.375000 -93.885338 3.154154 22.493963 34.602795 -6.961404 -29.245207 -11.110563 0.027782 1.575343 25.167368 -0.626536 -12.400862 -3.501540 2.046761 4.321703 -5.040843 5.933896 -10.481139 
252.936478 8.464309 2.899054 5.585938 10.859375 97.587891 21.677471 -14.030128 -1.297306 4.648437 12.138672 10.039062 -13.935420 -16.402672 -19.747852 13.046875 -0.771484 -0.244272 2.000000 -2.000000 0.000000 -72.626953 22.041016 -2.906492 2.923162 -10.037874 9.411506 -13.910418 -7.546467 0.235492 -2.000000 2.000000 0.000000 -93.974609 33.505859 -129.794922 1.079033 -7.841510 21.421478 -23.365032 -2.813499 -1.466666 -91.154083 2.076236 25.645449 32.565453 -7.124303 -31.286613 -11.579654 0.024481 1.174482 25.355547 -0.323564 -13.366812 -3.521734 2.056840 4.623107 -5.506570 5.877629 -10.402043 
254.148041 8.515187 2.847726 4.902344 9.619140 97.511398 21.677471 -14.030128 -1.297306 3.281251 13.261720 9.621382 -13.657708 -16.670612 -19.125059 13.076173 -0.751953 -0.234503 2.000000 -2.000000 0.000000 -74.091797 24.199221 -2.974512 2.844340 -10.183465 9.273854 -13.052453 -7.324629 0.117427 -2.000000 2.000000 0.000000 -94.570313 33.837891 -131.328125 1.889738 -7.782015 21.865658 -23.722279 -2.929110 -1.457051 -88.075211 1.035035 24.527205 29.898548 -7.011513 -31.661854 -10.292368 0.168194 -0.426542 25.015793 0.223517 -13.765813 -3.536063 2.062805 5.218040 -5.620317 5.833893 -10.098699 
254.488327 8.560421 2.761480 4.238281 8.671876 96.554214 21.677471 -14.030128 -1.297306 1.884766 13.974610 9.836343 -12.989283 -16.470329 -18.544056 13.125000 -0.742188 -0.224609 2.000000 -2.000000 0.000000 -75.488281 26.162107 -2.988281 2.491756 -10.218185 9.187973 -18.105886 -8.568524 0.827379 -2.000000 2.000000 0.000000 -94.023438 36.367191 -130.345779 2.047087 -7.661312 21.814701 -23.287477 -2.801976 -1.472168 -83.401848 0.437169 22.098404 27.001007 -6.531189 -29.943089 -8.246881 0.195905 -1.519820 24.933741 0.271518 -13.268109 -3.545478 2.072226 5.754618 -5.449218 5.805406 -9.773618 
255.791916 8.536704 2.653482 3.320313 7.744140 95.048828 21.677471 -14.030128 -1.297306 -0.332029 14.921877 10.354076 -11.338750 -15.999590 -18.426214 13.222656 -0.898438 -0.283356 2.000000 -2.000000 0.000000 -76.923820 28.378908 -2.612545 1.904793 -10.100014 9.200153 0.788319 -3.654998 -1.202472 -2.000000 2.000000 0.000000 -91.718750 42.109375 -126.572273 1.617964 -7.636236 21.424881 -21.469652 -2.283869 -1.555957 -77.972145 0.340315 18.080214 24.466993 -5.796646 -26.606190 -5.484832 0.163267 -2.237354 24.969154 0.429206 -12.341390 -3.578521 2.084760 6.348553 -5.482242 5.817312 -9.500778 
256.717468 8.474232 2.563780 2.558594 7.099609 93.673080 21.677471 -14.030128 -1.297306 -2.304688 15.478517 10.764325 -9.784896 -15.295449 -18.196255 13.408202 -1.083984 -0.332031 2.000000 -2.000000 0.000000 -78.164063 29.794922 -2.666016 1.258945 -9.840522 9.280094 -0.445118 -3.986061 -1.129732 -2.000000 2.000000 0.000000 -87.812500 49.150391 -122.297295 0.965750 -7.484193 20.886654 -21.305307 -2.231620 -1.566301 -70.654991 0.232247 15.038419 20.706480 -4.965718 -23.116783 -1.706493 0.050895 -2.647755 25.384069 0.584416 -11.775661 -3.606275 2.112894 7.019958 -5.469516 5.823810 -9.497950 
257.972290 8.327984 2.474713 1.572266 6.533203 92.374161 21.677471 -14.030128 -1.297306 -4.492187 16.806643 10.940323 -8.027014 -14.999496 -17.641975 13.583984 -1.640561 -0.498331 2.000000 -2.000000 0.000000 -79.531250 30.546873 -2.387614 1.101965 -9.874025 9.213700 -1.395286 -4.257684 -1.054253 -2.000000 2.000000 0.000000 -83.164063 57.158203 -117.872658 -0.339094 -7.296112 19.940987 -21.440676 -2.273498 -1.554337 -62.331638 0.361148 12.739591 16.462437 -4.066985 -18.798590 1.942150 0.028399 -3.642636 26.031502 0.994918 -11.293135 -3.624647 2.121669 7.732002 -5.599024 5.828648 -9.429510 
259.312775 8.152283 2.376614 1.083988 6.728538 91.309746 21.677471 -14.030128 -1.297306 -5.205079 17.734375 11.035156 -7.170284 -14.923596 -16.763105 13.974610 -2.275391 -0.683981 2.000000 -2.000000 0.000000 -81.064453 29.589842 -1.601563 1.356185 -10.086612 9.099771 0.005288 -3.859643 -1.156281 -2.000000 2.000000 0.000000 -78.798828 64.287117 -114.717766 -0.757401 -7.216979 19.623137 -21.846930 -2.389476 -1.547694 -51.000519 -0.118080 12.477551 9.239828 -3.126574 -13.910888 5.119158 -0.107040 -4.091785 27.599018 0.974447 -11.305217 -3.660110 2.155869 8.637597 -5.629396 5.787071 -9.191150 
